<mxfile host="app.diagrams.net" modified="2023-11-13T14:30:37.149Z" agent="Mozilla/5.0 (Windows NT 10.0; Win64; x64) AppleWebKit/537.36 (KHTML, like Gecko) Chrome/119.0.0.0 Safari/537.36" etag="gC5boOsxtQ4fftspRHUy" version="22.1.0" type="device">
  <diagram name="Trang-1" id="X9ONNm7VJsSAb0-AA7ta">
    <mxGraphModel dx="1050" dy="534" grid="1" gridSize="10" guides="1" tooltips="1" connect="1" arrows="1" fold="1" page="1" pageScale="1" pageWidth="827" pageHeight="1169" math="0" shadow="0">
      <root>
        <mxCell id="0" />
        <mxCell id="1" parent="0" />
        <mxCell id="Uh_T9utQ2s6Nnx_flTEi-2" value="" style="rounded=0;whiteSpace=wrap;html=1;" parent="1" vertex="1">
          <mxGeometry x="30" y="100" width="780" height="820" as="geometry" />
        </mxCell>
        <mxCell id="SSkPlXT4B8zMQTe9AwZA-1" value="Admin" style="shape=umlActor;verticalLabelPosition=bottom;verticalAlign=top;html=1;outlineConnect=0;" parent="1" vertex="1">
          <mxGeometry x="50" y="270" width="30" height="60" as="geometry" />
        </mxCell>
        <mxCell id="SSkPlXT4B8zMQTe9AwZA-7" value="Add new student" style="ellipse;whiteSpace=wrap;html=1;" parent="1" vertex="1">
          <mxGeometry x="150" y="260" width="120" height="80" as="geometry" />
        </mxCell>
        <mxCell id="Uh_T9utQ2s6Nnx_flTEi-3" value="Add new student function" style="shape=umlFrame;whiteSpace=wrap;html=1;pointerEvents=0;width=110;height=40;" parent="1" vertex="1">
          <mxGeometry x="120" y="150" width="620" height="300" as="geometry" />
        </mxCell>
        <mxCell id="Uh_T9utQ2s6Nnx_flTEi-5" value="&amp;lt;&amp;lt;include&amp;gt;&amp;gt;" style="html=1;verticalAlign=bottom;endArrow=open;dashed=1;endSize=8;curved=0;rounded=0;exitX=1;exitY=0.5;exitDx=0;exitDy=0;" parent="1" source="SSkPlXT4B8zMQTe9AwZA-7" target="Uh_T9utQ2s6Nnx_flTEi-6" edge="1">
          <mxGeometry x="-0.1415" y="18" relative="1" as="geometry">
            <mxPoint x="450" y="280" as="sourcePoint" />
            <mxPoint x="370" y="280" as="targetPoint" />
            <mxPoint as="offset" />
          </mxGeometry>
        </mxCell>
        <mxCell id="Uh_T9utQ2s6Nnx_flTEi-6" value="Click button add new student" style="ellipse;whiteSpace=wrap;html=1;" parent="1" vertex="1">
          <mxGeometry x="370" y="160" width="120" height="80" as="geometry" />
        </mxCell>
        <mxCell id="Uh_T9utQ2s6Nnx_flTEi-7" value="" style="endArrow=none;html=1;rounded=0;entryX=0;entryY=0.5;entryDx=0;entryDy=0;" parent="1" target="SSkPlXT4B8zMQTe9AwZA-7" edge="1">
          <mxGeometry width="50" height="50" relative="1" as="geometry">
            <mxPoint x="80" y="300" as="sourcePoint" />
            <mxPoint x="440" y="250" as="targetPoint" />
          </mxGeometry>
        </mxCell>
        <mxCell id="Uh_T9utQ2s6Nnx_flTEi-8" value="&lt;br&gt;Enter valid information" style="ellipse;whiteSpace=wrap;html=1;" parent="1" vertex="1">
          <mxGeometry x="380" y="250" width="120" height="80" as="geometry" />
        </mxCell>
        <mxCell id="Uh_T9utQ2s6Nnx_flTEi-9" value="&amp;lt;&amp;lt;include&amp;gt;&amp;gt;" style="html=1;verticalAlign=bottom;endArrow=open;dashed=1;endSize=8;curved=0;rounded=0;exitX=0.98;exitY=0.665;exitDx=0;exitDy=0;exitPerimeter=0;entryX=0.043;entryY=0.65;entryDx=0;entryDy=0;entryPerimeter=0;" parent="1" source="SSkPlXT4B8zMQTe9AwZA-7" target="Uh_T9utQ2s6Nnx_flTEi-8" edge="1">
          <mxGeometry x="0.046" y="7" relative="1" as="geometry">
            <mxPoint x="280" y="310" as="sourcePoint" />
            <mxPoint x="460" y="232" as="targetPoint" />
            <mxPoint as="offset" />
          </mxGeometry>
        </mxCell>
        <mxCell id="Uh_T9utQ2s6Nnx_flTEi-10" value="Click button save" style="ellipse;whiteSpace=wrap;html=1;" parent="1" vertex="1">
          <mxGeometry x="380" y="350" width="120" height="80" as="geometry" />
        </mxCell>
        <mxCell id="Uh_T9utQ2s6Nnx_flTEi-11" value="&amp;lt;&amp;lt;include&amp;gt;&amp;gt;" style="html=1;verticalAlign=bottom;endArrow=open;dashed=1;endSize=8;curved=0;rounded=0;exitX=1;exitY=1;exitDx=0;exitDy=0;entryX=0.05;entryY=0.69;entryDx=0;entryDy=0;entryPerimeter=0;" parent="1" source="SSkPlXT4B8zMQTe9AwZA-7" target="Uh_T9utQ2s6Nnx_flTEi-10" edge="1">
          <mxGeometry x="0.1054" y="12" relative="1" as="geometry">
            <mxPoint x="278" y="323" as="sourcePoint" />
            <mxPoint x="455" y="312" as="targetPoint" />
            <mxPoint as="offset" />
          </mxGeometry>
        </mxCell>
        <mxCell id="Uh_T9utQ2s6Nnx_flTEi-12" value="Enter student management screen" style="ellipse;whiteSpace=wrap;html=1;" parent="1" vertex="1">
          <mxGeometry x="600" y="160" width="120" height="80" as="geometry" />
        </mxCell>
        <mxCell id="Uh_T9utQ2s6Nnx_flTEi-13" value="&amp;lt;&amp;lt;include&amp;gt;&amp;gt;" style="html=1;verticalAlign=bottom;endArrow=open;dashed=1;endSize=8;curved=0;rounded=0;exitX=1;exitY=0.5;exitDx=0;exitDy=0;entryX=0;entryY=0.5;entryDx=0;entryDy=0;" parent="1" source="Uh_T9utQ2s6Nnx_flTEi-6" target="Uh_T9utQ2s6Nnx_flTEi-12" edge="1">
          <mxGeometry x="-0.0794" y="-17" relative="1" as="geometry">
            <mxPoint x="280" y="310" as="sourcePoint" />
            <mxPoint x="490" y="200" as="targetPoint" />
            <mxPoint as="offset" />
          </mxGeometry>
        </mxCell>
        <mxCell id="4cfnBp6zlMkXLsjZwcuF-1" value="Edit student information function" style="shape=umlFrame;whiteSpace=wrap;html=1;pointerEvents=0;width=130;height=40;" parent="1" vertex="1">
          <mxGeometry x="120" y="480" width="620" height="390" as="geometry" />
        </mxCell>
        <mxCell id="4cfnBp6zlMkXLsjZwcuF-2" value="Admin" style="shape=umlActor;verticalLabelPosition=bottom;verticalAlign=top;html=1;outlineConnect=0;" parent="1" vertex="1">
          <mxGeometry x="50" y="580" width="30" height="60" as="geometry" />
        </mxCell>
        <mxCell id="4cfnBp6zlMkXLsjZwcuF-3" value="Edit student information" style="ellipse;whiteSpace=wrap;html=1;" parent="1" vertex="1">
          <mxGeometry x="160" y="580" width="120" height="80" as="geometry" />
        </mxCell>
        <mxCell id="4cfnBp6zlMkXLsjZwcuF-4" value="" style="endArrow=none;html=1;rounded=0;entryX=0.03;entryY=0.365;entryDx=0;entryDy=0;entryPerimeter=0;" parent="1" target="4cfnBp6zlMkXLsjZwcuF-3" edge="1">
          <mxGeometry width="50" height="50" relative="1" as="geometry">
            <mxPoint x="80" y="609" as="sourcePoint" />
            <mxPoint x="160" y="310" as="targetPoint" />
            <Array as="points" />
          </mxGeometry>
        </mxCell>
        <mxCell id="4cfnBp6zlMkXLsjZwcuF-5" value="Enter student management screen" style="ellipse;whiteSpace=wrap;html=1;" parent="1" vertex="1">
          <mxGeometry x="610" y="490" width="120" height="80" as="geometry" />
        </mxCell>
        <mxCell id="4cfnBp6zlMkXLsjZwcuF-6" value="Find the student need edit" style="ellipse;whiteSpace=wrap;html=1;" parent="1" vertex="1">
          <mxGeometry x="370" y="490" width="120" height="80" as="geometry" />
        </mxCell>
        <mxCell id="4cfnBp6zlMkXLsjZwcuF-7" value="Click button edit student information" style="ellipse;whiteSpace=wrap;html=1;" parent="1" vertex="1">
          <mxGeometry x="370" y="580" width="120" height="80" as="geometry" />
        </mxCell>
        <mxCell id="4cfnBp6zlMkXLsjZwcuF-8" value="&amp;lt;&amp;lt;include&amp;gt;&amp;gt;" style="html=1;verticalAlign=bottom;endArrow=open;dashed=1;endSize=8;curved=0;rounded=0;exitX=1;exitY=0.5;exitDx=0;exitDy=0;" parent="1" source="4cfnBp6zlMkXLsjZwcuF-6" target="4cfnBp6zlMkXLsjZwcuF-5" edge="1">
          <mxGeometry x="-0.0794" y="-17" relative="1" as="geometry">
            <mxPoint x="500" y="210" as="sourcePoint" />
            <mxPoint x="610" y="210" as="targetPoint" />
            <mxPoint as="offset" />
          </mxGeometry>
        </mxCell>
        <mxCell id="4cfnBp6zlMkXLsjZwcuF-9" value="&amp;lt;&amp;lt;include&amp;gt;&amp;gt;" style="html=1;verticalAlign=bottom;endArrow=open;dashed=1;endSize=8;curved=0;rounded=0;exitX=0.99;exitY=0.385;exitDx=0;exitDy=0;exitPerimeter=0;" parent="1" source="4cfnBp6zlMkXLsjZwcuF-3" target="4cfnBp6zlMkXLsjZwcuF-6" edge="1">
          <mxGeometry x="-0.0794" y="-17" relative="1" as="geometry">
            <mxPoint x="510" y="560" as="sourcePoint" />
            <mxPoint x="620" y="560" as="targetPoint" />
            <mxPoint as="offset" />
          </mxGeometry>
        </mxCell>
        <mxCell id="4cfnBp6zlMkXLsjZwcuF-10" value="&lt;br&gt;Enter valid information" style="ellipse;whiteSpace=wrap;html=1;" parent="1" vertex="1">
          <mxGeometry x="370" y="670" width="120" height="80" as="geometry" />
        </mxCell>
        <mxCell id="4cfnBp6zlMkXLsjZwcuF-11" value="&amp;lt;&amp;lt;include&amp;gt;&amp;gt;" style="html=1;verticalAlign=bottom;endArrow=open;dashed=1;endSize=8;curved=0;rounded=0;exitX=1;exitY=0.5;exitDx=0;exitDy=0;" parent="1" source="4cfnBp6zlMkXLsjZwcuF-3" target="4cfnBp6zlMkXLsjZwcuF-7" edge="1">
          <mxGeometry x="-0.0794" y="-17" relative="1" as="geometry">
            <mxPoint x="289" y="621" as="sourcePoint" />
            <mxPoint x="393" y="565" as="targetPoint" />
            <mxPoint as="offset" />
          </mxGeometry>
        </mxCell>
        <mxCell id="4cfnBp6zlMkXLsjZwcuF-12" value="&amp;lt;&amp;lt;include&amp;gt;&amp;gt;" style="html=1;verticalAlign=bottom;endArrow=open;dashed=1;endSize=8;curved=0;rounded=0;exitX=0.943;exitY=0.815;exitDx=0;exitDy=0;exitPerimeter=0;" parent="1" source="4cfnBp6zlMkXLsjZwcuF-3" target="4cfnBp6zlMkXLsjZwcuF-10" edge="1">
          <mxGeometry x="-0.0794" y="-17" relative="1" as="geometry">
            <mxPoint x="290" y="630" as="sourcePoint" />
            <mxPoint x="380" y="630" as="targetPoint" />
            <mxPoint as="offset" />
          </mxGeometry>
        </mxCell>
        <mxCell id="4cfnBp6zlMkXLsjZwcuF-13" value="Click button save" style="ellipse;whiteSpace=wrap;html=1;" parent="1" vertex="1">
          <mxGeometry x="370" y="770" width="120" height="80" as="geometry" />
        </mxCell>
        <mxCell id="4cfnBp6zlMkXLsjZwcuF-14" value="&amp;lt;&amp;lt;include&amp;gt;&amp;gt;" style="html=1;verticalAlign=bottom;endArrow=open;dashed=1;endSize=8;curved=0;rounded=0;exitX=0.75;exitY=1;exitDx=0;exitDy=0;exitPerimeter=0;entryX=0;entryY=0.5;entryDx=0;entryDy=0;" parent="1" source="4cfnBp6zlMkXLsjZwcuF-3" target="4cfnBp6zlMkXLsjZwcuF-13" edge="1">
          <mxGeometry x="-0.0794" y="-17" relative="1" as="geometry">
            <mxPoint x="284" y="657" as="sourcePoint" />
            <mxPoint x="387" y="692" as="targetPoint" />
            <mxPoint as="offset" />
          </mxGeometry>
        </mxCell>
      </root>
    </mxGraphModel>
  </diagram>
</mxfile>
